<?xml version="1.0" encoding="UTF-8" standalone="no"?>
<!DOCTYPE svg PUBLIC "-//W3C//DTD SVG 1.1//EN"
 "http://www.w3.org/Graphics/SVG/1.1/DTD/svg11.dtd">
<!-- Generated by graphviz version 2.38.0 (20140413.2041)
 -->
<!-- Title: %3 Pages: 1 -->
<svg width="979pt" height="188pt"
 viewBox="0.00 0.00 978.68 188.00" xmlns="http://www.w3.org/2000/svg" xmlns:xlink="http://www.w3.org/1999/xlink">
<g id="graph0" class="graph" transform="scale(1 1) rotate(0) translate(4 184)">
<title>%3</title>
<polygon fill="white" stroke="none" points="-4,4 -4,-184 974.681,-184 974.681,4 -4,4"/>
<!-- 3 -->
<g id="node1" class="node"><title>3</title>
<ellipse fill="none" stroke="black" cx="109.84" cy="-18" rx="109.681" ry="18"/>
<text text-anchor="middle" x="109.84" y="-14.3" font-family="Times New Roman,serif" font-size="14.00">merge_sort([3, 5]) ↦ [3, 5]</text>
</g>
<!-- 2 -->
<g id="node2" class="node"><title>2</title>
<ellipse fill="none" stroke="black" cx="328.84" cy="-90" rx="146.774" ry="18"/>
<text text-anchor="middle" x="328.84" y="-86.3" font-family="Times New Roman,serif" font-size="14.00">merge_sort([3, 5, 9, 2]) ↦ [2, 3, 5, 9]</text>
</g>
<!-- 2&#45;&gt;3 -->
<g id="edge1" class="edge"><title>2&#45;&gt;3</title>
<path fill="none" stroke="black" d="M278.872,-73.0283C245.781,-62.4513 202.268,-48.5432 167.679,-37.4871"/>
<polygon fill="black" stroke="black" points="168.306,-34.0131 157.715,-34.3023 166.174,-40.6808 168.306,-34.0131"/>
</g>
<!-- 4 -->
<g id="node3" class="node"><title>4</title>
<ellipse fill="none" stroke="black" cx="347.84" cy="-18" rx="109.681" ry="18"/>
<text text-anchor="middle" x="347.84" y="-14.3" font-family="Times New Roman,serif" font-size="14.00">merge_sort([9, 2]) ↦ [2, 9]</text>
</g>
<!-- 2&#45;&gt;4 -->
<g id="edge2" class="edge"><title>2&#45;&gt;4</title>
<path fill="none" stroke="black" d="M333.537,-71.6966C335.654,-63.8979 338.202,-54.5085 340.558,-45.8292"/>
<polygon fill="black" stroke="black" points="343.956,-46.672 343.198,-36.1043 337.2,-44.8383 343.956,-46.672"/>
</g>
<!-- 1 -->
<g id="node4" class="node"><title>1</title>
<ellipse fill="none" stroke="black" stroke-width="3" cx="484.84" cy="-162" rx="220.961" ry="18"/>
<text text-anchor="middle" x="484.84" y="-158.3" font-family="Times New Roman,serif" font-size="14.00">merge_sort([3, 5, 9, 2, 6, 1, 6, 7]) ↦ [1, 2, 3, 5, 6, 6, 7, 9]</text>
</g>
<!-- 1&#45;&gt;2 -->
<g id="edge3" class="edge"><title>1&#45;&gt;2</title>
<path fill="none" stroke="black" d="M447.474,-144.233C425.688,-134.457 398.033,-122.048 374.906,-111.671"/>
<polygon fill="black" stroke="black" points="376.188,-108.41 365.632,-107.509 373.323,-114.796 376.188,-108.41"/>
</g>
<!-- 5 -->
<g id="node6" class="node"><title>5</title>
<ellipse fill="none" stroke="black" cx="640.84" cy="-90" rx="146.774" ry="18"/>
<text text-anchor="middle" x="640.84" y="-86.3" font-family="Times New Roman,serif" font-size="14.00">merge_sort([6, 1, 6, 7]) ↦ [1, 6, 6, 7]</text>
</g>
<!-- 1&#45;&gt;5 -->
<g id="edge6" class="edge"><title>1&#45;&gt;5</title>
<path fill="none" stroke="black" d="M522.206,-144.233C543.993,-134.457 571.647,-122.048 594.774,-111.671"/>
<polygon fill="black" stroke="black" points="596.358,-114.796 604.049,-107.509 593.492,-108.41 596.358,-114.796"/>
</g>
<!-- 6 -->
<g id="node5" class="node"><title>6</title>
<ellipse fill="none" stroke="black" cx="622.84" cy="-18" rx="109.681" ry="18"/>
<text text-anchor="middle" x="622.84" y="-14.3" font-family="Times New Roman,serif" font-size="14.00">merge_sort([6, 1]) ↦ [1, 6]</text>
</g>
<!-- 5&#45;&gt;6 -->
<g id="edge4" class="edge"><title>5&#45;&gt;6</title>
<path fill="none" stroke="black" d="M636.391,-71.6966C634.385,-63.8979 631.971,-54.5085 629.739,-45.8292"/>
<polygon fill="black" stroke="black" points="633.119,-44.9176 627.239,-36.1043 626.339,-46.6609 633.119,-44.9176"/>
</g>
<!-- 7 -->
<g id="node7" class="node"><title>7</title>
<ellipse fill="none" stroke="black" cx="860.84" cy="-18" rx="109.681" ry="18"/>
<text text-anchor="middle" x="860.84" y="-14.3" font-family="Times New Roman,serif" font-size="14.00">merge_sort([6, 7]) ↦ [6, 7]</text>
</g>
<!-- 5&#45;&gt;7 -->
<g id="edge5" class="edge"><title>5&#45;&gt;7</title>
<path fill="none" stroke="black" d="M691.037,-73.0283C724.422,-62.4059 768.366,-48.4237 803.185,-37.3449"/>
<polygon fill="black" stroke="black" points="804.279,-40.6697 812.747,-34.3023 802.157,-33.9992 804.279,-40.6697"/>
</g>
</g>
</svg>
