<?xml version="1.0" encoding="UTF-8" standalone="no"?>
<!DOCTYPE svg PUBLIC "-//W3C//DTD SVG 1.1//EN"
 "http://www.w3.org/Graphics/SVG/1.1/DTD/svg11.dtd">
<!-- Generated by graphviz version 2.38.0 (20140413.2041)
 -->
<!-- Title: %3 Pages: 1 -->
<svg width="11905pt" height="620pt"
 viewBox="0.00 0.00 11904.54 620.00" xmlns="http://www.w3.org/2000/svg" xmlns:xlink="http://www.w3.org/1999/xlink">
<g id="graph0" class="graph" transform="scale(1 1) rotate(0) translate(4 616)">
<title>%3</title>
<polygon fill="white" stroke="none" points="-4,4 -4,-616 11900.5,-616 11900.5,4 -4,4"/>
<!-- 3 -->
<g id="node1" class="node"><title>3</title>
<ellipse fill="none" stroke="black" cx="1043.87" cy="-450" rx="349.038" ry="18"/>
<text text-anchor="middle" x="1043.87" y="-446.3" font-family="Times New Roman,serif" font-size="14.00">dfs_recursive([[0, 0, 6, 0], [0, 0, 2, 5], [6, 2, 0, 1], [0, 5, 1, 0]], 0, {0, 1}, 0, [], [3, 3], []) ↦ []</text>
</g>
<!-- 2 -->
<g id="node2" class="node"><title>2</title>
<ellipse fill="none" stroke="black" cx="2252.87" cy="-522" rx="601.693" ry="18"/>
<text text-anchor="middle" x="2252.87" y="-518.3" font-family="Times New Roman,serif" font-size="14.00">dfs_recursive([[0, 0, 6, 0], [3, 0, 2, 5], [6, 2, 0, 1], [0, 5, 1, 0]], 1, {0}, 0, [], [3], [[[3, 5, 1, 6], [6, 1, 5, 3]], [[3, 5, 1, 6]]]) ↦ [[[3, 5, 1, 6], [6, 1, 5, 3]], [[3, 5, 1, 6]]]</text>
</g>
<!-- 2&#45;&gt;3 -->
<g id="edge1" class="edge"><title>2&#45;&gt;3</title>
<path fill="none" stroke="black" d="M1990.16,-505.789C1777.57,-493.48 1480.96,-476.308 1276.78,-464.485"/>
<polygon fill="black" stroke="black" points="1276.7,-460.975 1266.52,-463.891 1276.3,-467.963 1276.7,-460.975"/>
</g>
<!-- 4 -->
<g id="node4" class="node"><title>4</title>
<ellipse fill="none" stroke="black" cx="1759.87" cy="-450" rx="349.038" ry="18"/>
<text text-anchor="middle" x="1759.87" y="-446.3" font-family="Times New Roman,serif" font-size="14.00">dfs_recursive([[0, 0, 6, 0], [3, 0, 0, 5], [6, 2, 0, 1], [0, 5, 1, 0]], 2, {0, 1}, 0, [], [3, 2], []) ↦ []</text>
</g>
<!-- 2&#45;&gt;4 -->
<g id="edge5" class="edge"><title>2&#45;&gt;4</title>
<path fill="none" stroke="black" d="M2135.41,-504.322C2059.36,-493.525 1960.5,-479.487 1883.3,-468.525"/>
<polygon fill="black" stroke="black" points="1883.43,-465.009 1873.03,-467.068 1882.44,-471.939 1883.43,-465.009"/>
</g>
<!-- 8 -->
<g id="node8" class="node"><title>8</title>
<ellipse fill="none" stroke="black" cx="2746.87" cy="-450" rx="620.09" ry="18"/>
<text text-anchor="middle" x="2746.87" y="-446.3" font-family="Times New Roman,serif" font-size="14.00">dfs_recursive([[0, 0, 6, 0], [3, 0, 2, 0], [6, 2, 0, 1], [0, 5, 1, 0]], 3, {0, 1}, 0, [], [3, 5], [[[3, 5, 1, 6], [6, 1, 5, 3]], [[3, 5, 1, 6]]]) ↦ [[[3, 5, 1, 6], [6, 1, 5, 3]], [[3, 5, 1, 6]]]</text>
</g>
<!-- 2&#45;&gt;8 -->
<g id="edge16" class="edge"><title>2&#45;&gt;8</title>
<path fill="none" stroke="black" d="M2370.57,-504.322C2445.26,-493.737 2541.93,-480.039 2618.59,-469.177"/>
<polygon fill="black" stroke="black" points="2619.38,-472.6 2628.79,-467.732 2618.4,-465.67 2619.38,-472.6"/>
</g>
<!-- 5 -->
<g id="node3" class="node"><title>5</title>
<ellipse fill="none" stroke="black" cx="367.867" cy="-378" rx="367.735" ry="18"/>
<text text-anchor="middle" x="367.867" y="-374.3" font-family="Times New Roman,serif" font-size="14.00">dfs_recursive([[0, 0, 6, 0], [3, 0, 0, 5], [0, 2, 0, 1], [0, 5, 1, 0]], 0, {0, 1, 2}, 0, [], [3, 2, 6], []) ↦ []</text>
</g>
<!-- 4&#45;&gt;5 -->
<g id="edge2" class="edge"><title>4&#45;&gt;5</title>
<path fill="none" stroke="black" d="M1519.78,-436.927C1269.97,-424.364 880.227,-404.765 624.452,-391.903"/>
<polygon fill="black" stroke="black" points="624.437,-388.398 614.274,-391.391 624.085,-395.389 624.437,-388.398"/>
</g>
<!-- 6 -->
<g id="node5" class="node"><title>6</title>
<ellipse fill="none" stroke="black" cx="1121.87" cy="-378" rx="367.735" ry="18"/>
<text text-anchor="middle" x="1121.87" y="-374.3" font-family="Times New Roman,serif" font-size="14.00">dfs_recursive([[0, 0, 6, 0], [3, 0, 0, 5], [6, 0, 0, 1], [0, 5, 1, 0]], 1, {0, 1, 2}, 0, [], [3, 2, 2], []) ↦ []</text>
</g>
<!-- 4&#45;&gt;6 -->
<g id="edge3" class="edge"><title>4&#45;&gt;6</title>
<path fill="none" stroke="black" d="M1618.67,-433.508C1516.53,-422.302 1378.67,-407.176 1274.08,-395.7"/>
<polygon fill="black" stroke="black" points="1274.39,-392.213 1264.06,-394.602 1273.62,-399.171 1274.39,-392.213"/>
</g>
<!-- 7 -->
<g id="node6" class="node"><title>7</title>
<ellipse fill="none" stroke="black" cx="1875.87" cy="-378" rx="367.735" ry="18"/>
<text text-anchor="middle" x="1875.87" y="-374.3" font-family="Times New Roman,serif" font-size="14.00">dfs_recursive([[0, 0, 6, 0], [3, 0, 0, 5], [6, 2, 0, 0], [0, 5, 1, 0]], 3, {0, 1, 2}, 0, [], [3, 2, 1], []) ↦ []</text>
</g>
<!-- 4&#45;&gt;7 -->
<g id="edge4" class="edge"><title>4&#45;&gt;7</title>
<path fill="none" stroke="black" d="M1787.95,-432.055C1803.22,-422.837 1822.31,-411.319 1838.79,-401.371"/>
<polygon fill="black" stroke="black" points="1840.89,-404.195 1847.64,-396.032 1837.27,-398.202 1840.89,-404.195"/>
</g>
<!-- 9 -->
<g id="node7" class="node"><title>9</title>
<ellipse fill="none" stroke="black" cx="2629.87" cy="-378" rx="367.735" ry="18"/>
<text text-anchor="middle" x="2629.87" y="-374.3" font-family="Times New Roman,serif" font-size="14.00">dfs_recursive([[0, 0, 6, 0], [3, 0, 2, 0], [6, 2, 0, 1], [0, 0, 1, 0]], 1, {0, 1, 3}, 0, [], [3, 5, 5], []) ↦ []</text>
</g>
<!-- 8&#45;&gt;9 -->
<g id="edge6" class="edge"><title>8&#45;&gt;9</title>
<path fill="none" stroke="black" d="M2718.25,-431.876C2702.83,-422.655 2683.64,-411.172 2667.08,-401.265"/>
<polygon fill="black" stroke="black" points="2668.57,-398.078 2658.19,-395.947 2664.98,-404.085 2668.57,-398.078"/>
</g>
<!-- 10 -->
<g id="node17" class="node"><title>10</title>
<ellipse fill="none" stroke="black" cx="3654.87" cy="-378" rx="638.787" ry="18"/>
<text text-anchor="middle" x="3654.87" y="-374.3" font-family="Times New Roman,serif" font-size="14.00">dfs_recursive([[0, 0, 6, 0], [3, 0, 2, 0], [6, 2, 0, 1], [0, 5, 0, 0]], 2, {0, 1, 3}, 0, [], [3, 5, 1], [[[3, 5, 1, 6], [6, 1, 5, 3]], [[3, 5, 1, 6]]]) ↦ [[[3, 5, 1, 6], [6, 1, 5, 3]], [[3, 5, 1, 6]]]</text>
</g>
<!-- 8&#45;&gt;10 -->
<g id="edge15" class="edge"><title>8&#45;&gt;10</title>
<path fill="none" stroke="black" d="M2954.04,-433.028C3098.33,-421.905 3290.4,-407.097 3436.98,-395.797"/>
<polygon fill="black" stroke="black" points="3437.31,-399.282 3447.01,-395.024 3436.77,-392.303 3437.31,-399.282"/>
</g>
<!-- 14 -->
<g id="node9" class="node"><title>14</title>
<ellipse fill="none" stroke="black" cx="2332.87" cy="-90" rx="405.628" ry="18"/>
<text text-anchor="middle" x="2332.87" y="-86.3" font-family="Times New Roman,serif" font-size="14.00">dfs_recursive([[0, 0, 0, 0], [0, 0, 2, 0], [0, 0, 0, 1], [0, 5, 0, 0]], 0, {0, 1, 2}, 1, [[3, 5, 1, 6]], [6, 2, 3], []) ↦ []</text>
</g>
<!-- 13 -->
<g id="node10" class="node"><title>13</title>
<ellipse fill="none" stroke="black" cx="3161.87" cy="-162" rx="387.231" ry="18"/>
<text text-anchor="middle" x="3161.87" y="-158.3" font-family="Times New Roman,serif" font-size="14.00">dfs_recursive([[0, 0, 0, 0], [3, 0, 2, 0], [0, 0, 0, 1], [0, 5, 0, 0]], 1, {0, 2}, 1, [[3, 5, 1, 6]], [6, 2], []) ↦ []</text>
</g>
<!-- 13&#45;&gt;14 -->
<g id="edge7" class="edge"><title>13&#45;&gt;14</title>
<path fill="none" stroke="black" d="M2984.03,-145.983C2848.26,-134.52 2661.56,-118.755 2522.88,-107.044"/>
<polygon fill="black" stroke="black" points="2522.82,-103.527 2512.56,-106.173 2522.23,-110.502 2522.82,-103.527"/>
</g>
<!-- 15 -->
<g id="node11" class="node"><title>15</title>
<ellipse fill="none" stroke="black" cx="3161.87" cy="-90" rx="405.628" ry="18"/>
<text text-anchor="middle" x="3161.87" y="-86.3" font-family="Times New Roman,serif" font-size="14.00">dfs_recursive([[0, 0, 0, 0], [3, 0, 0, 0], [0, 0, 0, 1], [0, 5, 0, 0]], 2, {0, 1, 2}, 1, [[3, 5, 1, 6]], [6, 2, 2], []) ↦ []</text>
</g>
<!-- 13&#45;&gt;15 -->
<g id="edge8" class="edge"><title>13&#45;&gt;15</title>
<path fill="none" stroke="black" d="M3161.87,-143.697C3161.87,-135.983 3161.87,-126.712 3161.87,-118.112"/>
<polygon fill="black" stroke="black" points="3165.37,-118.104 3161.87,-108.104 3158.37,-118.104 3165.37,-118.104"/>
</g>
<!-- 12 -->
<g id="node12" class="node"><title>12</title>
<ellipse fill="none" stroke="black" cx="3654.87" cy="-234" rx="542.104" ry="18"/>
<text text-anchor="middle" x="3654.87" y="-230.3" font-family="Times New Roman,serif" font-size="14.00">dfs_recursive([[0, 0, 0, 0], [3, 0, 2, 0], [0, 2, 0, 1], [0, 5, 0, 0]], 2, {0}, 1, [[3, 5, 1, 6]], [6], [[[3, 5, 1, 6], [6, 1, 5, 3]]]) ↦ [[[3, 5, 1, 6], [6, 1, 5, 3]]]</text>
</g>
<!-- 12&#45;&gt;13 -->
<g id="edge9" class="edge"><title>12&#45;&gt;13</title>
<path fill="none" stroke="black" d="M3538.03,-216.411C3462.28,-205.654 3363.68,-191.655 3286.43,-180.687"/>
<polygon fill="black" stroke="black" points="3286.55,-177.169 3276.16,-179.228 3285.57,-184.1 3286.55,-177.169"/>
</g>
<!-- 16 -->
<g id="node15" class="node"><title>16</title>
<ellipse fill="none" stroke="black" cx="4146.87" cy="-162" rx="560.8" ry="18"/>
<text text-anchor="middle" x="4146.87" y="-158.3" font-family="Times New Roman,serif" font-size="14.00">dfs_recursive([[0, 0, 0, 0], [3, 0, 2, 0], [0, 2, 0, 0], [0, 5, 0, 0]], 3, {0, 2}, 1, [[3, 5, 1, 6]], [6, 1], [[[3, 5, 1, 6], [6, 1, 5, 3]]]) ↦ [[[3, 5, 1, 6], [6, 1, 5, 3]]]</text>
</g>
<!-- 12&#45;&gt;16 -->
<g id="edge12" class="edge"><title>12&#45;&gt;16</title>
<path fill="none" stroke="black" d="M3771.46,-216.411C3846.12,-205.79 3942.99,-192.007 4019.63,-181.103"/>
<polygon fill="black" stroke="black" points="4020.42,-184.526 4029.83,-179.652 4019.44,-177.595 4020.42,-184.526"/>
</g>
<!-- 18 -->
<g id="node13" class="node"><title>18</title>
<ellipse fill="none" stroke="black" cx="4164.87" cy="-18" rx="410.227" ry="18"/>
<text text-anchor="middle" x="4164.87" y="-14.3" font-family="Times New Roman,serif" font-size="14.00">dfs_recursive([[0, 0, 0, 0], [0, 0, 2, 0], [0, 2, 0, 0], [0, 0, 0, 0]], 0, set(), 2, [[3, 5, 1, 6], [6, 1, 5, 3]], [], []) ↦ []</text>
</g>
<!-- 17 -->
<g id="node14" class="node"><title>17</title>
<ellipse fill="none" stroke="black" cx="4164.87" cy="-90" rx="579.197" ry="18"/>
<text text-anchor="middle" x="4164.87" y="-86.3" font-family="Times New Roman,serif" font-size="14.00">dfs_recursive([[0, 0, 0, 0], [3, 0, 2, 0], [0, 2, 0, 0], [0, 0, 0, 0]], 1, {0, 2, 3}, 1, [[3, 5, 1, 6]], [6, 1, 5], [[[3, 5, 1, 6], [6, 1, 5, 3]]]) ↦ [[[3, 5, 1, 6], [6, 1, 5, 3]]]</text>
</g>
<!-- 17&#45;&gt;18 -->
<g id="edge10" class="edge"><title>17&#45;&gt;18</title>
<path fill="none" stroke="black" d="M4164.87,-71.6966C4164.87,-63.9827 4164.87,-54.7125 4164.87,-46.1124"/>
<polygon fill="black" stroke="black" points="4168.37,-46.1043 4164.87,-36.1043 4161.37,-46.1044 4168.37,-46.1043"/>
</g>
<!-- 16&#45;&gt;17 -->
<g id="edge11" class="edge"><title>16&#45;&gt;17</title>
<path fill="none" stroke="black" d="M4151.32,-143.697C4153.32,-135.898 4155.74,-126.509 4157.97,-117.829"/>
<polygon fill="black" stroke="black" points="4161.37,-118.661 4160.47,-108.104 4154.59,-116.918 4161.37,-118.661"/>
</g>
<!-- 11 -->
<g id="node16" class="node"><title>11</title>
<ellipse fill="none" stroke="black" cx="3654.87" cy="-306" rx="540.504" ry="18"/>
<text text-anchor="middle" x="3654.87" y="-302.3" font-family="Times New Roman,serif" font-size="14.00">dfs_recursive([[0, 0, 6, 0], [3, 0, 2, 0], [0, 2, 0, 1], [0, 5, 0, 0]], 0, set(), 1, [[3, 5, 1, 6]], [], [[[3, 5, 1, 6], [6, 1, 5, 3]]]) ↦ [[[3, 5, 1, 6], [6, 1, 5, 3]]]</text>
</g>
<!-- 11&#45;&gt;12 -->
<g id="edge13" class="edge"><title>11&#45;&gt;12</title>
<path fill="none" stroke="black" d="M3654.87,-287.697C3654.87,-279.983 3654.87,-270.712 3654.87,-262.112"/>
<polygon fill="black" stroke="black" points="3658.37,-262.104 3654.87,-252.104 3651.37,-262.104 3658.37,-262.104"/>
</g>
<!-- 10&#45;&gt;11 -->
<g id="edge14" class="edge"><title>10&#45;&gt;11</title>
<path fill="none" stroke="black" d="M3654.87,-359.697C3654.87,-351.983 3654.87,-342.712 3654.87,-334.112"/>
<polygon fill="black" stroke="black" points="3658.37,-334.104 3654.87,-324.104 3651.37,-334.104 3658.37,-334.104"/>
</g>
<!-- 1 -->
<g id="node18" class="node"><title>1</title>
<ellipse fill="none" stroke="black" stroke-width="3" cx="3934.87" cy="-594" rx="533.705" ry="18"/>
<text text-anchor="middle" x="3934.87" y="-590.3" font-family="Times New Roman,serif" font-size="14.00">dfs_recursive([[0, 3, 6, 0], [3, 0, 2, 5], [6, 2, 0, 1], [0, 5, 1, 0]]) ↦ [[[3, 5, 1, 6], [6, 1, 5, 3]], [[3, 5, 1, 6]], [[6, 1, 5, 3], [3, 5, 1, 6]], [[6, 1, 5, 3]]]</text>
</g>
<!-- 1&#45;&gt;2 -->
<g id="edge17" class="edge"><title>1&#45;&gt;2</title>
<path fill="none" stroke="black" d="M3613.54,-579.627C3322.92,-567.532 2896.12,-549.77 2598.27,-537.375"/>
<polygon fill="black" stroke="black" points="2598.31,-533.873 2588.17,-536.954 2598.02,-540.867 2598.31,-533.873"/>
</g>
<!-- 19 -->
<g id="node20" class="node"><title>19</title>
<ellipse fill="none" stroke="black" cx="5617.87" cy="-522" rx="882.743" ry="18"/>
<text text-anchor="middle" x="5617.87" y="-518.3" font-family="Times New Roman,serif" font-size="14.00">dfs_recursive([[0, 3, 0, 0], [3, 0, 2, 5], [6, 2, 0, 1], [0, 5, 1, 0]], 2, {0}, 0, [], [6], [[[3, 5, 1, 6], [6, 1, 5, 3]], [[3, 5, 1, 6]], [[6, 1, 5, 3], [3, 5, 1, 6]], [[6, 1, 5, 3]]]) ↦ [[[3, 5, 1, 6], [6, 1, 5, 3]], [[3, 5, 1, 6]], [[6, 1, 5, 3], [3, 5, 1, 6]], [[6, 1, 5, 3]]]</text>
</g>
<!-- 1&#45;&gt;19 -->
<g id="edge34" class="edge"><title>1&#45;&gt;19</title>
<path fill="none" stroke="black" d="M4256.38,-579.627C4536.45,-567.979 4942.9,-551.074 5238.75,-538.768"/>
<polygon fill="black" stroke="black" points="5238.95,-542.263 5248.79,-538.351 5238.65,-535.269 5238.95,-542.263"/>
</g>
<!-- 20 -->
<g id="node19" class="node"><title>20</title>
<ellipse fill="none" stroke="black" cx="4988.87" cy="-450" rx="620.09" ry="18"/>
<text text-anchor="middle" x="4988.87" y="-446.3" font-family="Times New Roman,serif" font-size="14.00">dfs_recursive([[0, 3, 0, 0], [3, 0, 2, 5], [0, 2, 0, 1], [0, 5, 1, 0]], 0, {0, 2}, 0, [], [6, 6], [[[3, 5, 1, 6], [6, 1, 5, 3]], [[3, 5, 1, 6]]]) ↦ [[[3, 5, 1, 6], [6, 1, 5, 3]], [[3, 5, 1, 6]]]</text>
</g>
<!-- 19&#45;&gt;20 -->
<g id="edge18" class="edge"><title>19&#45;&gt;20</title>
<path fill="none" stroke="black" d="M5467.21,-504.233C5370.58,-493.48 5245.32,-479.54 5147.22,-468.623"/>
<polygon fill="black" stroke="black" points="5147.54,-465.137 5137.21,-467.509 5146.76,-472.094 5147.54,-465.137"/>
</g>
<!-- 21 -->
<g id="node22" class="node"><title>21</title>
<ellipse fill="none" stroke="black" cx="6246.87" cy="-450" rx="620.09" ry="18"/>
<text text-anchor="middle" x="6246.87" y="-446.3" font-family="Times New Roman,serif" font-size="14.00">dfs_recursive([[0, 3, 0, 0], [3, 0, 2, 5], [6, 0, 0, 1], [0, 5, 1, 0]], 1, {0, 2}, 0, [], [6, 2], [[[3, 5, 1, 6], [6, 1, 5, 3]], [[3, 5, 1, 6]]]) ↦ [[[3, 5, 1, 6], [6, 1, 5, 3]], [[3, 5, 1, 6]]]</text>
</g>
<!-- 19&#45;&gt;21 -->
<g id="edge22" class="edge"><title>19&#45;&gt;21</title>
<path fill="none" stroke="black" d="M5768.53,-504.233C5865.16,-493.48 5990.42,-479.54 6088.51,-468.623"/>
<polygon fill="black" stroke="black" points="6088.97,-472.094 6098.52,-467.509 6088.2,-465.137 6088.97,-472.094"/>
</g>
<!-- 25 -->
<g id="node34" class="node"><title>25</title>
<ellipse fill="none" stroke="black" cx="9119.87" cy="-450" rx="900.64" ry="18"/>
<text text-anchor="middle" x="9119.87" y="-446.3" font-family="Times New Roman,serif" font-size="14.00">dfs_recursive([[0, 3, 0, 0], [3, 0, 2, 5], [6, 2, 0, 0], [0, 5, 1, 0]], 3, {0, 2}, 0, [], [6, 1], [[[3, 5, 1, 6], [6, 1, 5, 3]], [[3, 5, 1, 6]], [[6, 1, 5, 3], [3, 5, 1, 6]], [[6, 1, 5, 3]]]) ↦ [[[3, 5, 1, 6], [6, 1, 5, 3]], [[3, 5, 1, 6]], [[6, 1, 5, 3], [3, 5, 1, 6]], [[6, 1, 5, 3]]]</text>
</g>
<!-- 19&#45;&gt;25 -->
<g id="edge33" class="edge"><title>19&#45;&gt;25</title>
<path fill="none" stroke="black" d="M6223.37,-508.897C6859.64,-496.179 7855.49,-476.273 8497.88,-463.433"/>
<polygon fill="black" stroke="black" points="8498.33,-466.924 8508.26,-463.225 8498.19,-459.926 8498.33,-466.924"/>
</g>
<!-- 22 -->
<g id="node21" class="node"><title>22</title>
<ellipse fill="none" stroke="black" cx="4950.87" cy="-378" rx="638.787" ry="18"/>
<text text-anchor="middle" x="4950.87" y="-374.3" font-family="Times New Roman,serif" font-size="14.00">dfs_recursive([[0, 3, 0, 0], [0, 0, 2, 5], [6, 0, 0, 1], [0, 5, 1, 0]], 0, {0, 1, 2}, 0, [], [6, 2, 3], [[[3, 5, 1, 6], [6, 1, 5, 3]], [[3, 5, 1, 6]]]) ↦ [[[3, 5, 1, 6], [6, 1, 5, 3]], [[3, 5, 1, 6]]]</text>
</g>
<!-- 21&#45;&gt;22 -->
<g id="edge19" class="edge"><title>21&#45;&gt;22</title>
<path fill="none" stroke="black" d="M5967.65,-433.919C5753.6,-422.358 5459.08,-406.45 5242.1,-394.73"/>
<polygon fill="black" stroke="black" points="5242,-391.22 5231.83,-394.175 5241.63,-398.21 5242,-391.22"/>
</g>
<!-- 23 -->
<g id="node23" class="node"><title>23</title>
<ellipse fill="none" stroke="black" cx="6246.87" cy="-378" rx="638.787" ry="18"/>
<text text-anchor="middle" x="6246.87" y="-374.3" font-family="Times New Roman,serif" font-size="14.00">dfs_recursive([[0, 3, 0, 0], [3, 0, 0, 5], [6, 0, 0, 1], [0, 5, 1, 0]], 2, {0, 1, 2}, 0, [], [6, 2, 2], [[[3, 5, 1, 6], [6, 1, 5, 3]], [[3, 5, 1, 6]]]) ↦ [[[3, 5, 1, 6], [6, 1, 5, 3]], [[3, 5, 1, 6]]]</text>
</g>
<!-- 21&#45;&gt;23 -->
<g id="edge20" class="edge"><title>21&#45;&gt;23</title>
<path fill="none" stroke="black" d="M6246.87,-431.697C6246.87,-423.983 6246.87,-414.712 6246.87,-406.112"/>
<polygon fill="black" stroke="black" points="6250.37,-406.104 6246.87,-396.104 6243.37,-406.104 6250.37,-406.104"/>
</g>
<!-- 24 -->
<g id="node24" class="node"><title>24</title>
<ellipse fill="none" stroke="black" cx="7542.87" cy="-378" rx="638.787" ry="18"/>
<text text-anchor="middle" x="7542.87" y="-374.3" font-family="Times New Roman,serif" font-size="14.00">dfs_recursive([[0, 3, 0, 0], [3, 0, 2, 0], [6, 0, 0, 1], [0, 5, 1, 0]], 3, {0, 1, 2}, 0, [], [6, 2, 5], [[[3, 5, 1, 6], [6, 1, 5, 3]], [[3, 5, 1, 6]]]) ↦ [[[3, 5, 1, 6], [6, 1, 5, 3]], [[3, 5, 1, 6]]]</text>
</g>
<!-- 21&#45;&gt;24 -->
<g id="edge21" class="edge"><title>21&#45;&gt;24</title>
<path fill="none" stroke="black" d="M6526.09,-433.919C6740.13,-422.358 7034.65,-406.45 7251.63,-394.73"/>
<polygon fill="black" stroke="black" points="7252.11,-398.21 7261.91,-394.175 7251.73,-391.22 7252.11,-398.21"/>
</g>
<!-- 30 -->
<g id="node25" class="node"><title>30</title>
<ellipse fill="none" stroke="black" cx="6980.87" cy="-90" rx="676.68" ry="18"/>
<text text-anchor="middle" x="6980.87" y="-86.3" font-family="Times New Roman,serif" font-size="14.00">dfs_recursive([[0, 0, 0, 0], [0, 0, 0, 5], [0, 2, 0, 0], [0, 0, 1, 0]], 0, {0, 1, 2}, 1, [[6, 1, 5, 3]], [3, 2, 6], [[[3, 5, 1, 6], [6, 1, 5, 3]], [[3, 5, 1, 6]]]) ↦ [[[3, 5, 1, 6], [6, 1, 5, 3]], [[3, 5, 1, 6]]]</text>
</g>
<!-- 29 -->
<g id="node26" class="node"><title>29</title>
<ellipse fill="none" stroke="black" cx="8351.87" cy="-162" rx="658.283" ry="18"/>
<text text-anchor="middle" x="8351.87" y="-158.3" font-family="Times New Roman,serif" font-size="14.00">dfs_recursive([[0, 0, 0, 0], [0, 0, 0, 5], [6, 2, 0, 0], [0, 0, 1, 0]], 2, {0, 1}, 1, [[6, 1, 5, 3]], [3, 2], [[[3, 5, 1, 6], [6, 1, 5, 3]], [[3, 5, 1, 6]]]) ↦ [[[3, 5, 1, 6], [6, 1, 5, 3]], [[3, 5, 1, 6]]]</text>
</g>
<!-- 29&#45;&gt;30 -->
<g id="edge23" class="edge"><title>29&#45;&gt;30</title>
<path fill="none" stroke="black" d="M8056.07,-145.897C7829.48,-134.328 7517.83,-118.416 7288.38,-106.701"/>
<polygon fill="black" stroke="black" points="7288.37,-103.196 7278.2,-106.181 7288.01,-110.187 7288.37,-103.196"/>
</g>
<!-- 31 -->
<g id="node27" class="node"><title>31</title>
<ellipse fill="none" stroke="black" cx="8351.87" cy="-90" rx="676.68" ry="18"/>
<text text-anchor="middle" x="8351.87" y="-86.3" font-family="Times New Roman,serif" font-size="14.00">dfs_recursive([[0, 0, 0, 0], [0, 0, 0, 5], [6, 0, 0, 0], [0, 0, 1, 0]], 1, {0, 1, 2}, 1, [[6, 1, 5, 3]], [3, 2, 2], [[[3, 5, 1, 6], [6, 1, 5, 3]], [[3, 5, 1, 6]]]) ↦ [[[3, 5, 1, 6], [6, 1, 5, 3]], [[3, 5, 1, 6]]]</text>
</g>
<!-- 29&#45;&gt;31 -->
<g id="edge24" class="edge"><title>29&#45;&gt;31</title>
<path fill="none" stroke="black" d="M8351.87,-143.697C8351.87,-135.983 8351.87,-126.712 8351.87,-118.112"/>
<polygon fill="black" stroke="black" points="8355.37,-118.104 8351.87,-108.104 8348.37,-118.104 8355.37,-118.104"/>
</g>
<!-- 28 -->
<g id="node28" class="node"><title>28</title>
<ellipse fill="none" stroke="black" cx="9119.87" cy="-234" rx="822.654" ry="18"/>
<text text-anchor="middle" x="9119.87" y="-230.3" font-family="Times New Roman,serif" font-size="14.00">dfs_recursive([[0, 0, 0, 0], [0, 0, 2, 5], [6, 2, 0, 0], [0, 0, 1, 0]], 1, {0}, 1, [[6, 1, 5, 3]], [3], [[[3, 5, 1, 6], [6, 1, 5, 3]], [[3, 5, 1, 6]], [[6, 1, 5, 3], [3, 5, 1, 6]]]) ↦ [[[3, 5, 1, 6], [6, 1, 5, 3]], [[3, 5, 1, 6]], [[6, 1, 5, 3], [3, 5, 1, 6]]]</text>
</g>
<!-- 28&#45;&gt;29 -->
<g id="edge25" class="edge"><title>28&#45;&gt;29</title>
<path fill="none" stroke="black" d="M8937.86,-216.411C8818.35,-205.518 8662.35,-191.299 8541.36,-180.271"/>
<polygon fill="black" stroke="black" points="8541.52,-176.771 8531.24,-179.349 8540.88,-183.742 8541.52,-176.771"/>
</g>
<!-- 32 -->
<g id="node31" class="node"><title>32</title>
<ellipse fill="none" stroke="black" cx="9887.87" cy="-162" rx="841.851" ry="18"/>
<text text-anchor="middle" x="9887.87" y="-158.3" font-family="Times New Roman,serif" font-size="14.00">dfs_recursive([[0, 0, 0, 0], [0, 0, 2, 0], [6, 2, 0, 0], [0, 0, 1, 0]], 3, {0, 1}, 1, [[6, 1, 5, 3]], [3, 5], [[[3, 5, 1, 6], [6, 1, 5, 3]], [[3, 5, 1, 6]], [[6, 1, 5, 3], [3, 5, 1, 6]]]) ↦ [[[3, 5, 1, 6], [6, 1, 5, 3]], [[3, 5, 1, 6]], [[6, 1, 5, 3], [3, 5, 1, 6]]]</text>
</g>
<!-- 28&#45;&gt;32 -->
<g id="edge28" class="edge"><title>28&#45;&gt;32</title>
<path fill="none" stroke="black" d="M9301.87,-216.411C9420.52,-205.597 9575.13,-191.505 9695.75,-180.511"/>
<polygon fill="black" stroke="black" points="9696.2,-183.984 9705.84,-179.591 9695.56,-177.013 9696.2,-183.984"/>
</g>
<!-- 34 -->
<g id="node29" class="node"><title>34</title>
<ellipse fill="none" stroke="black" cx="9905.87" cy="-18" rx="681.279" ry="18"/>
<text text-anchor="middle" x="9905.87" y="-14.3" font-family="Times New Roman,serif" font-size="14.00">dfs_recursive([[0, 0, 0, 0], [0, 0, 2, 0], [0, 2, 0, 0], [0, 0, 0, 0]], 0, set(), 2, [[6, 1, 5, 3], [3, 5, 1, 6]], [], [[[3, 5, 1, 6], [6, 1, 5, 3]], [[3, 5, 1, 6]]]) ↦ [[[3, 5, 1, 6], [6, 1, 5, 3]], [[3, 5, 1, 6]]]</text>
</g>
<!-- 33 -->
<g id="node30" class="node"><title>33</title>
<ellipse fill="none" stroke="black" cx="9905.87" cy="-90" rx="859.747" ry="18"/>
<text text-anchor="middle" x="9905.87" y="-86.3" font-family="Times New Roman,serif" font-size="14.00">dfs_recursive([[0, 0, 0, 0], [0, 0, 2, 0], [6, 2, 0, 0], [0, 0, 0, 0]], 2, {0, 1, 3}, 1, [[6, 1, 5, 3]], [3, 5, 1], [[[3, 5, 1, 6], [6, 1, 5, 3]], [[3, 5, 1, 6]], [[6, 1, 5, 3], [3, 5, 1, 6]]]) ↦ [[[3, 5, 1, 6], [6, 1, 5, 3]], [[3, 5, 1, 6]], [[6, 1, 5, 3], [3, 5, 1, 6]]]</text>
</g>
<!-- 33&#45;&gt;34 -->
<g id="edge26" class="edge"><title>33&#45;&gt;34</title>
<path fill="none" stroke="black" d="M9905.87,-71.6966C9905.87,-63.9827 9905.87,-54.7125 9905.87,-46.1124"/>
<polygon fill="black" stroke="black" points="9909.37,-46.1043 9905.87,-36.1043 9902.37,-46.1044 9909.37,-46.1043"/>
</g>
<!-- 32&#45;&gt;33 -->
<g id="edge27" class="edge"><title>32&#45;&gt;33</title>
<path fill="none" stroke="black" d="M9892.32,-143.697C9894.32,-135.898 9896.74,-126.509 9898.97,-117.829"/>
<polygon fill="black" stroke="black" points="9902.37,-118.661 9901.47,-108.104 9895.59,-116.918 9902.37,-118.661"/>
</g>
<!-- 27 -->
<g id="node32" class="node"><title>27</title>
<ellipse fill="none" stroke="black" cx="9119.87" cy="-306" rx="821.554" ry="18"/>
<text text-anchor="middle" x="9119.87" y="-302.3" font-family="Times New Roman,serif" font-size="14.00">dfs_recursive([[0, 3, 0, 0], [0, 0, 2, 5], [6, 2, 0, 0], [0, 0, 1, 0]], 0, set(), 1, [[6, 1, 5, 3]], [], [[[3, 5, 1, 6], [6, 1, 5, 3]], [[3, 5, 1, 6]], [[6, 1, 5, 3], [3, 5, 1, 6]]]) ↦ [[[3, 5, 1, 6], [6, 1, 5, 3]], [[3, 5, 1, 6]], [[6, 1, 5, 3], [3, 5, 1, 6]]]</text>
</g>
<!-- 27&#45;&gt;28 -->
<g id="edge29" class="edge"><title>27&#45;&gt;28</title>
<path fill="none" stroke="black" d="M9119.87,-287.697C9119.87,-279.983 9119.87,-270.712 9119.87,-262.112"/>
<polygon fill="black" stroke="black" points="9123.37,-262.104 9119.87,-252.104 9116.37,-262.104 9123.37,-262.104"/>
</g>
<!-- 26 -->
<g id="node33" class="node"><title>26</title>
<ellipse fill="none" stroke="black" cx="9119.87" cy="-378" rx="919.837" ry="18"/>
<text text-anchor="middle" x="9119.87" y="-374.3" font-family="Times New Roman,serif" font-size="14.00">dfs_recursive([[0, 3, 0, 0], [3, 0, 2, 5], [6, 2, 0, 0], [0, 0, 1, 0]], 1, {0, 2, 3}, 0, [], [6, 1, 5], [[[3, 5, 1, 6], [6, 1, 5, 3]], [[3, 5, 1, 6]], [[6, 1, 5, 3], [3, 5, 1, 6]], [[6, 1, 5, 3]]]) ↦ [[[3, 5, 1, 6], [6, 1, 5, 3]], [[3, 5, 1, 6]], [[6, 1, 5, 3], [3, 5, 1, 6]], [[6, 1, 5, 3]]]</text>
</g>
<!-- 26&#45;&gt;27 -->
<g id="edge30" class="edge"><title>26&#45;&gt;27</title>
<path fill="none" stroke="black" d="M9119.87,-359.697C9119.87,-351.983 9119.87,-342.712 9119.87,-334.112"/>
<polygon fill="black" stroke="black" points="9123.37,-334.104 9119.87,-324.104 9116.37,-334.104 9123.37,-334.104"/>
</g>
<!-- 25&#45;&gt;26 -->
<g id="edge31" class="edge"><title>25&#45;&gt;26</title>
<path fill="none" stroke="black" d="M9119.87,-431.697C9119.87,-423.983 9119.87,-414.712 9119.87,-406.112"/>
<polygon fill="black" stroke="black" points="9123.37,-406.104 9119.87,-396.104 9116.37,-406.104 9123.37,-406.104"/>
</g>
<!-- 35 -->
<g id="node35" class="node"><title>35</title>
<ellipse fill="none" stroke="black" cx="10976.9" cy="-378" rx="919.837" ry="18"/>
<text text-anchor="middle" x="10976.9" y="-374.3" font-family="Times New Roman,serif" font-size="14.00">dfs_recursive([[0, 3, 0, 0], [3, 0, 2, 5], [6, 2, 0, 0], [0, 5, 0, 0]], 2, {0, 2, 3}, 0, [], [6, 1, 1], [[[3, 5, 1, 6], [6, 1, 5, 3]], [[3, 5, 1, 6]], [[6, 1, 5, 3], [3, 5, 1, 6]], [[6, 1, 5, 3]]]) ↦ [[[3, 5, 1, 6], [6, 1, 5, 3]], [[3, 5, 1, 6]], [[6, 1, 5, 3], [3, 5, 1, 6]], [[6, 1, 5, 3]]]</text>
</g>
<!-- 25&#45;&gt;35 -->
<g id="edge32" class="edge"><title>25&#45;&gt;35</title>
<path fill="none" stroke="black" d="M9521.09,-433.876C9829.12,-422.264 10253,-406.288 10563.9,-394.567"/>
<polygon fill="black" stroke="black" points="10564.1,-398.061 10574,-394.187 10563.9,-391.066 10564.1,-398.061"/>
</g>
</g>
</svg>
