<?xml version="1.0" encoding="UTF-8" standalone="no"?>
<!DOCTYPE svg PUBLIC "-//W3C//DTD SVG 1.1//EN"
 "http://www.w3.org/Graphics/SVG/1.1/DTD/svg11.dtd">
<!-- Generated by graphviz version 2.38.0 (20140413.2041)
 -->
<!-- Title: %3 Pages: 1 -->
<svg width="9306pt" height="260pt"
 viewBox="0.00 0.00 9305.68 260.00" xmlns="http://www.w3.org/2000/svg" xmlns:xlink="http://www.w3.org/1999/xlink">
<g id="graph0" class="graph" transform="scale(1 1) rotate(0) translate(4 256)">
<title>%3</title>
<polygon fill="white" stroke="none" points="-4,4 -4,-256 9301.68,-256 9301.68,4 -4,4"/>
<!-- 4 -->
<g id="node1" class="node"><title>4</title>
<ellipse fill="none" stroke="black" cx="320.422" cy="-18" rx="320.343" ry="18"/>
<text text-anchor="middle" x="320.422" y="-14.3" font-family="Times New Roman,serif" font-size="14.00">dfs_recursive([[0, 0, 0, 0], [0, 0, 2, 5], [6, 2, 0, 1], [0, 5, 1, 0]], 3, 2, [3, 3, 6], []) ↦ []</text>
</g>
<!-- 3 -->
<g id="node2" class="node"><title>3</title>
<ellipse fill="none" stroke="black" cx="806.422" cy="-90" rx="311.145" ry="18"/>
<text text-anchor="middle" x="806.422" y="-86.3" font-family="Times New Roman,serif" font-size="14.00">dfs_recursive([[0, 0, 6, 0], [0, 0, 2, 5], [6, 2, 0, 1], [0, 5, 1, 0]], 9, 0, [3, 3], []) ↦ []</text>
</g>
<!-- 3&#45;&gt;4 -->
<g id="edge1" class="edge"><title>3&#45;&gt;4</title>
<path fill="none" stroke="black" d="M696.444,-73.1597C620.317,-62.1948 519.013,-47.6037 440.735,-36.3291"/>
<polygon fill="black" stroke="black" points="441.218,-32.8627 430.821,-34.9012 440.22,-39.7912 441.218,-32.8627"/>
</g>
<!-- 2 -->
<g id="node3" class="node"><title>2</title>
<ellipse fill="none" stroke="black" cx="2446.42" cy="-162" rx="382.332" ry="18"/>
<text text-anchor="middle" x="2446.42" y="-158.3" font-family="Times New Roman,serif" font-size="14.00">dfs_recursive([[0, 0, 6, 0], [3, 0, 2, 5], [6, 2, 0, 1], [0, 5, 1, 0]], 12, 1, [3], [[3, 5, 1, 6]]) ↦ [[3, 5, 1, 6]]</text>
</g>
<!-- 2&#45;&gt;3 -->
<g id="edge2" class="edge"><title>2&#45;&gt;3</title>
<path fill="none" stroke="black" d="M2173.77,-149.362C1863.4,-136.115 1360.5,-114.65 1058.82,-101.773"/>
<polygon fill="black" stroke="black" points="1058.76,-98.2675 1048.62,-101.338 1058.46,-105.261 1058.76,-98.2675"/>
</g>
<!-- 5 -->
<g id="node5" class="node"><title>5</title>
<ellipse fill="none" stroke="black" cx="1937.42" cy="-90" rx="315.444" ry="18"/>
<text text-anchor="middle" x="1937.42" y="-86.3" font-family="Times New Roman,serif" font-size="14.00">dfs_recursive([[0, 0, 6, 0], [3, 0, 0, 5], [6, 2, 0, 1], [0, 5, 1, 0]], 10, 2, [3, 2], []) ↦ []</text>
</g>
<!-- 2&#45;&gt;5 -->
<g id="edge6" class="edge"><title>2&#45;&gt;5</title>
<path fill="none" stroke="black" d="M2329.01,-144.853C2249.33,-133.895 2144.1,-119.423 2062.79,-108.241"/>
<polygon fill="black" stroke="black" points="2062.87,-104.72 2052.49,-106.825 2061.92,-111.655 2062.87,-104.72"/>
</g>
<!-- 9 -->
<g id="node9" class="node"><title>9</title>
<ellipse fill="none" stroke="black" cx="2956.42" cy="-90" rx="387.231" ry="18"/>
<text text-anchor="middle" x="2956.42" y="-86.3" font-family="Times New Roman,serif" font-size="14.00">dfs_recursive([[0, 0, 6, 0], [3, 0, 2, 0], [6, 2, 0, 1], [0, 5, 1, 0]], 7, 3, [3, 5], [[3, 5, 1, 6]]) ↦ [[3, 5, 1, 6]]</text>
</g>
<!-- 2&#45;&gt;9 -->
<g id="edge9" class="edge"><title>2&#45;&gt;9</title>
<path fill="none" stroke="black" d="M2564.07,-144.853C2643.06,-134.011 2747.11,-119.729 2828.21,-108.598"/>
<polygon fill="black" stroke="black" points="2829.06,-112.015 2838.49,-107.187 2828.1,-105.08 2829.06,-112.015"/>
</g>
<!-- 6 -->
<g id="node4" class="node"><title>6</title>
<ellipse fill="none" stroke="black" cx="979.422" cy="-18" rx="320.343" ry="18"/>
<text text-anchor="middle" x="979.422" y="-14.3" font-family="Times New Roman,serif" font-size="14.00">dfs_recursive([[0, 0, 6, 0], [3, 0, 0, 5], [0, 2, 0, 1], [0, 5, 1, 0]], 4, 0, [3, 2, 6], []) ↦ []</text>
</g>
<!-- 5&#45;&gt;6 -->
<g id="edge3" class="edge"><title>5&#45;&gt;6</title>
<path fill="none" stroke="black" d="M1751.86,-75.4411C1586.37,-63.3491 1344.87,-45.7027 1176.09,-33.3702"/>
<polygon fill="black" stroke="black" points="1176.32,-29.8777 1166.09,-32.6396 1175.81,-36.8591 1176.32,-29.8777"/>
</g>
<!-- 7 -->
<g id="node6" class="node"><title>7</title>
<ellipse fill="none" stroke="black" cx="1638.42" cy="-18" rx="320.343" ry="18"/>
<text text-anchor="middle" x="1638.42" y="-14.3" font-family="Times New Roman,serif" font-size="14.00">dfs_recursive([[0, 0, 6, 0], [3, 0, 0, 5], [6, 0, 0, 1], [0, 5, 1, 0]], 8, 1, [3, 2, 2], []) ↦ []</text>
</g>
<!-- 5&#45;&gt;7 -->
<g id="edge4" class="edge"><title>5&#45;&gt;7</title>
<path fill="none" stroke="black" d="M1866.56,-72.411C1822.32,-62.0529 1765.23,-48.6873 1719.23,-37.9176"/>
<polygon fill="black" stroke="black" points="1719.82,-34.4628 1709.29,-35.5911 1718.23,-41.2785 1719.82,-34.4628"/>
</g>
<!-- 8 -->
<g id="node7" class="node"><title>8</title>
<ellipse fill="none" stroke="black" cx="2297.42" cy="-18" rx="320.343" ry="18"/>
<text text-anchor="middle" x="2297.42" y="-14.3" font-family="Times New Roman,serif" font-size="14.00">dfs_recursive([[0, 0, 6, 0], [3, 0, 0, 5], [6, 2, 0, 0], [0, 5, 1, 0]], 9, 3, [3, 2, 1], []) ↦ []</text>
</g>
<!-- 5&#45;&gt;8 -->
<g id="edge5" class="edge"><title>5&#45;&gt;8</title>
<path fill="none" stroke="black" d="M2021.83,-72.5881C2076.23,-62.0095 2147.05,-48.2394 2203.27,-37.3068"/>
<polygon fill="black" stroke="black" points="2204.09,-40.714 2213.24,-35.3696 2202.75,-33.8427 2204.09,-40.714"/>
</g>
<!-- 10 -->
<g id="node8" class="node"><title>10</title>
<ellipse fill="none" stroke="black" cx="2956.42" cy="-18" rx="320.343" ry="18"/>
<text text-anchor="middle" x="2956.42" y="-14.3" font-family="Times New Roman,serif" font-size="14.00">dfs_recursive([[0, 0, 6, 0], [3, 0, 2, 0], [6, 2, 0, 1], [0, 0, 1, 0]], 2, 1, [3, 5, 5], []) ↦ []</text>
</g>
<!-- 9&#45;&gt;10 -->
<g id="edge7" class="edge"><title>9&#45;&gt;10</title>
<path fill="none" stroke="black" d="M2956.42,-71.6966C2956.42,-63.9827 2956.42,-54.7125 2956.42,-46.1124"/>
<polygon fill="black" stroke="black" points="2959.92,-46.1043 2956.42,-36.1043 2952.92,-46.1044 2959.92,-46.1043"/>
</g>
<!-- 11 -->
<g id="node10" class="node"><title>11</title>
<ellipse fill="none" stroke="black" cx="3691.42" cy="-18" rx="396.43" ry="18"/>
<text text-anchor="middle" x="3691.42" y="-14.3" font-family="Times New Roman,serif" font-size="14.00">dfs_recursive([[0, 0, 6, 0], [3, 0, 2, 0], [6, 2, 0, 1], [0, 5, 0, 0]], 6, 2, [3, 5, 1], [[3, 5, 1, 6]]) ↦ [[3, 5, 1, 6]]</text>
</g>
<!-- 9&#45;&gt;11 -->
<g id="edge8" class="edge"><title>9&#45;&gt;11</title>
<path fill="none" stroke="black" d="M3118.18,-73.5949C3236.88,-62.2894 3397.85,-46.9594 3518.99,-35.422"/>
<polygon fill="black" stroke="black" points="3519.49,-38.8905 3529.11,-34.4581 3518.82,-31.922 3519.49,-38.8905"/>
</g>
<!-- 1 -->
<g id="node11" class="node"><title>1</title>
<ellipse fill="none" stroke="black" stroke-width="3" cx="3676.42" cy="-234" rx="352.038" ry="18"/>
<text text-anchor="middle" x="3676.42" y="-230.3" font-family="Times New Roman,serif" font-size="14.00">dfs_recursive([[0, 3, 6, 0], [3, 0, 2, 5], [6, 2, 0, 1], [0, 5, 1, 0]], 15) ↦ [[3, 5, 1, 6], [6, 1, 5, 3]]</text>
</g>
<!-- 1&#45;&gt;2 -->
<g id="edge10" class="edge"><title>1&#45;&gt;2</title>
<path fill="none" stroke="black" d="M3450.82,-220.161C3235.24,-207.892 2911.2,-189.451 2689.87,-176.855"/>
<polygon fill="black" stroke="black" points="2689.92,-173.352 2679.74,-176.278 2689.52,-180.341 2689.92,-173.352"/>
</g>
<!-- 12 -->
<g id="node14" class="node"><title>12</title>
<ellipse fill="none" stroke="black" cx="4916.42" cy="-162" rx="463.318" ry="18"/>
<text text-anchor="middle" x="4916.42" y="-158.3" font-family="Times New Roman,serif" font-size="14.00">dfs_recursive([[0, 3, 0, 0], [3, 0, 2, 5], [6, 2, 0, 1], [0, 5, 1, 0]], 9, 2, [6], [[3, 5, 1, 6], [6, 1, 5, 3]]) ↦ [[3, 5, 1, 6], [6, 1, 5, 3]]</text>
</g>
<!-- 1&#45;&gt;12 -->
<g id="edge20" class="edge"><title>1&#45;&gt;12</title>
<path fill="none" stroke="black" d="M3903.14,-220.202C4115.47,-208.215 4432.62,-190.311 4655.42,-177.734"/>
<polygon fill="black" stroke="black" points="4655.84,-181.216 4665.62,-177.158 4655.44,-174.227 4655.84,-181.216"/>
</g>
<!-- 14 -->
<g id="node12" class="node"><title>14</title>
<ellipse fill="none" stroke="black" cx="4502.42" cy="-18" rx="396.43" ry="18"/>
<text text-anchor="middle" x="4502.42" y="-14.3" font-family="Times New Roman,serif" font-size="14.00">dfs_recursive([[0, 0, 0, 0], [3, 0, 2, 5], [0, 2, 0, 1], [0, 5, 1, 0]], 0, 1, [6, 6, 3], [[3, 5, 1, 6]]) ↦ [[3, 5, 1, 6]]</text>
</g>
<!-- 13 -->
<g id="node13" class="node"><title>13</title>
<ellipse fill="none" stroke="black" cx="4511.42" cy="-90" rx="387.231" ry="18"/>
<text text-anchor="middle" x="4511.42" y="-86.3" font-family="Times New Roman,serif" font-size="14.00">dfs_recursive([[0, 3, 0, 0], [3, 0, 2, 5], [0, 2, 0, 1], [0, 5, 1, 0]], 3, 0, [6, 6], [[3, 5, 1, 6]]) ↦ [[3, 5, 1, 6]]</text>
</g>
<!-- 13&#45;&gt;14 -->
<g id="edge11" class="edge"><title>13&#45;&gt;14</title>
<path fill="none" stroke="black" d="M4509.2,-71.6966C4508.21,-63.9827 4507.01,-54.7125 4505.91,-46.1124"/>
<polygon fill="black" stroke="black" points="4509.37,-45.5763 4504.62,-36.1043 4502.42,-46.469 4509.37,-45.5763"/>
</g>
<!-- 12&#45;&gt;13 -->
<g id="edge12" class="edge"><title>12&#45;&gt;13</title>
<path fill="none" stroke="black" d="M4820.19,-144.367C4758.9,-133.773 4679.49,-120.048 4616.55,-109.17"/>
<polygon fill="black" stroke="black" points="4617.04,-105.704 4606.59,-107.45 4615.85,-112.602 4617.04,-105.704"/>
</g>
<!-- 15 -->
<g id="node16" class="node"><title>15</title>
<ellipse fill="none" stroke="black" cx="5718.42" cy="-90" rx="387.231" ry="18"/>
<text text-anchor="middle" x="5718.42" y="-86.3" font-family="Times New Roman,serif" font-size="14.00">dfs_recursive([[0, 3, 0, 0], [3, 0, 2, 5], [6, 0, 0, 1], [0, 5, 1, 0]], 7, 1, [6, 2], [[3, 5, 1, 6]]) ↦ [[3, 5, 1, 6]]</text>
</g>
<!-- 12&#45;&gt;15 -->
<g id="edge16" class="edge"><title>12&#45;&gt;15</title>
<path fill="none" stroke="black" d="M5095.41,-145.378C5226.23,-133.96 5403.08,-118.524 5534.93,-107.015"/>
<polygon fill="black" stroke="black" points="5535.49,-110.48 5545.15,-106.124 5534.88,-103.507 5535.49,-110.48"/>
</g>
<!-- 19 -->
<g id="node20" class="node"><title>19</title>
<ellipse fill="none" stroke="black" cx="7832.42" cy="-90" rx="473.316" ry="18"/>
<text text-anchor="middle" x="7832.42" y="-86.3" font-family="Times New Roman,serif" font-size="14.00">dfs_recursive([[0, 3, 0, 0], [3, 0, 2, 5], [6, 2, 0, 0], [0, 5, 1, 0]], 8, 3, [6, 1], [[3, 5, 1, 6], [6, 1, 5, 3]]) ↦ [[3, 5, 1, 6], [6, 1, 5, 3]]</text>
</g>
<!-- 12&#45;&gt;19 -->
<g id="edge19" class="edge"><title>12&#45;&gt;19</title>
<path fill="none" stroke="black" d="M5298.76,-151.822C5852.27,-138.535 6871.88,-114.058 7434.17,-100.56"/>
<polygon fill="black" stroke="black" points="7434.56,-104.052 7444.47,-100.313 7434.39,-97.054 7434.56,-104.052"/>
</g>
<!-- 16 -->
<g id="node15" class="node"><title>16</title>
<ellipse fill="none" stroke="black" cx="5313.42" cy="-18" rx="396.43" ry="18"/>
<text text-anchor="middle" x="5313.42" y="-14.3" font-family="Times New Roman,serif" font-size="14.00">dfs_recursive([[0, 3, 0, 0], [0, 0, 2, 5], [6, 0, 0, 1], [0, 5, 1, 0]], 4, 0, [6, 2, 3], [[3, 5, 1, 6]]) ↦ [[3, 5, 1, 6]]</text>
</g>
<!-- 15&#45;&gt;16 -->
<g id="edge13" class="edge"><title>15&#45;&gt;16</title>
<path fill="none" stroke="black" d="M5623.21,-72.5439C5561.95,-61.9558 5482.27,-48.1842 5419.06,-37.2592"/>
<polygon fill="black" stroke="black" points="5419.52,-33.7855 5409.07,-35.5312 5418.32,-40.6833 5419.52,-33.7855"/>
</g>
<!-- 17 -->
<g id="node17" class="node"><title>17</title>
<ellipse fill="none" stroke="black" cx="6124.42" cy="-18" rx="396.43" ry="18"/>
<text text-anchor="middle" x="6124.42" y="-14.3" font-family="Times New Roman,serif" font-size="14.00">dfs_recursive([[0, 3, 0, 0], [3, 0, 0, 5], [6, 0, 0, 1], [0, 5, 1, 0]], 5, 2, [6, 2, 2], [[3, 5, 1, 6]]) ↦ [[3, 5, 1, 6]]</text>
</g>
<!-- 15&#45;&gt;17 -->
<g id="edge14" class="edge"><title>15&#45;&gt;17</title>
<path fill="none" stroke="black" d="M5813.87,-72.5439C5875.39,-61.9366 5955.44,-48.1343 6018.86,-37.1999"/>
<polygon fill="black" stroke="black" points="6019.63,-40.6188 6028.89,-35.4705 6018.44,-33.7205 6019.63,-40.6188"/>
</g>
<!-- 18 -->
<g id="node18" class="node"><title>18</title>
<ellipse fill="none" stroke="black" cx="6935.42" cy="-18" rx="396.43" ry="18"/>
<text text-anchor="middle" x="6935.42" y="-14.3" font-family="Times New Roman,serif" font-size="14.00">dfs_recursive([[0, 3, 0, 0], [3, 0, 2, 0], [6, 0, 0, 1], [0, 5, 1, 0]], 2, 3, [6, 2, 5], [[3, 5, 1, 6]]) ↦ [[3, 5, 1, 6]]</text>
</g>
<!-- 15&#45;&gt;18 -->
<g id="edge15" class="edge"><title>15&#45;&gt;18</title>
<path fill="none" stroke="black" d="M5951.27,-75.6068C6163.12,-63.4216 6474.75,-45.497 6690.34,-33.0969"/>
<polygon fill="black" stroke="black" points="6690.75,-36.5792 6700.53,-32.5107 6690.34,-29.5908 6690.75,-36.5792"/>
</g>
<!-- 20 -->
<g id="node19" class="node"><title>20</title>
<ellipse fill="none" stroke="black" cx="7832.42" cy="-18" rx="482.015" ry="18"/>
<text text-anchor="middle" x="7832.42" y="-14.3" font-family="Times New Roman,serif" font-size="14.00">dfs_recursive([[0, 3, 0, 0], [3, 0, 2, 5], [6, 2, 0, 0], [0, 0, 1, 0]], 3, 1, [6, 1, 5], [[3, 5, 1, 6], [6, 1, 5, 3]]) ↦ [[3, 5, 1, 6], [6, 1, 5, 3]]</text>
</g>
<!-- 19&#45;&gt;20 -->
<g id="edge17" class="edge"><title>19&#45;&gt;20</title>
<path fill="none" stroke="black" d="M7832.42,-71.6966C7832.42,-63.9827 7832.42,-54.7125 7832.42,-46.1124"/>
<polygon fill="black" stroke="black" points="7835.92,-46.1043 7832.42,-36.1043 7828.92,-46.1044 7835.92,-46.1043"/>
</g>
<!-- 21 -->
<g id="node21" class="node"><title>21</title>
<ellipse fill="none" stroke="black" cx="8815.42" cy="-18" rx="482.015" ry="18"/>
<text text-anchor="middle" x="8815.42" y="-14.3" font-family="Times New Roman,serif" font-size="14.00">dfs_recursive([[0, 3, 0, 0], [3, 0, 2, 5], [6, 2, 0, 0], [0, 5, 0, 0]], 7, 2, [6, 1, 1], [[3, 5, 1, 6], [6, 1, 5, 3]]) ↦ [[3, 5, 1, 6], [6, 1, 5, 3]]</text>
</g>
<!-- 19&#45;&gt;21 -->
<g id="edge18" class="edge"><title>19&#45;&gt;21</title>
<path fill="none" stroke="black" d="M8044.51,-73.8972C8206.07,-62.3921 8427.95,-46.5917 8592.21,-34.8954"/>
<polygon fill="black" stroke="black" points="8592.72,-38.3677 8602.45,-34.1662 8592.22,-31.3854 8592.72,-38.3677"/>
</g>
</g>
</svg>
