<?xml version="1.0" encoding="UTF-8" standalone="no"?>
<!DOCTYPE svg PUBLIC "-//W3C//DTD SVG 1.1//EN"
 "http://www.w3.org/Graphics/SVG/1.1/DTD/svg11.dtd">
<!-- Generated by graphviz version 2.38.0 (20140413.2041)
 -->
<!-- Title: %3 Pages: 1 -->
<svg width="7036pt" height="332pt"
 viewBox="0.00 0.00 7035.63 332.00" xmlns="http://www.w3.org/2000/svg" xmlns:xlink="http://www.w3.org/1999/xlink">
<g id="graph0" class="graph" transform="scale(1 1) rotate(0) translate(4 328)">
<title>%3</title>
<polygon fill="white" stroke="none" points="-4,4 -4,-328 7031.63,-328 7031.63,4 -4,4"/>
<!-- 4 -->
<g id="node1" class="node"><title>4</title>
<ellipse fill="none" stroke="black" cx="381.516" cy="-90" rx="381.532" ry="18"/>
<text text-anchor="middle" x="381.516" y="-86.3" font-family="Times New Roman,serif" font-size="14.00">merge_sort_buffered([(&#39;text_split_3_L_0.txt&#39;, 1)], &#39;text.txt&#39;, 3, _side=L) ↦ [(&#39;text_split_3_L_0.txt&#39;, 1)]</text>
</g>
<!-- 3 -->
<g id="node2" class="node"><title>3</title>
<ellipse fill="none" stroke="black" cx="1172.52" cy="-162" rx="388.031" ry="18"/>
<text text-anchor="middle" x="1172.52" y="-158.3" font-family="Times New Roman,serif" font-size="14.00">merge_sort_buffered([(&#39;text_split_2_L_0.txt&#39;, 8)], &#39;text.txt&#39;, 2, _side=L) ↦ [(&#39;text_merge_2_L_0.txt&#39;, 8)]</text>
</g>
<!-- 3&#45;&gt;4 -->
<g id="edge1" class="edge"><title>3&#45;&gt;4</title>
<path fill="none" stroke="black" d="M1000.88,-145.811C871.462,-134.358 694.356,-118.685 562.674,-107.032"/>
<polygon fill="black" stroke="black" points="562.746,-103.524 552.476,-106.129 562.128,-110.497 562.746,-103.524"/>
</g>
<!-- 5 -->
<g id="node4" class="node"><title>5</title>
<ellipse fill="none" stroke="black" cx="1172.52" cy="-90" rx="391.031" ry="18"/>
<text text-anchor="middle" x="1172.52" y="-86.3" font-family="Times New Roman,serif" font-size="14.00">merge_sort_buffered([(&#39;text_split_3_R_0.txt&#39;, 6)], &#39;text.txt&#39;, 3, _side=R) ↦ [(&#39;text_merge_3_R_0.txt&#39;, 6)]</text>
</g>
<!-- 3&#45;&gt;5 -->
<g id="edge4" class="edge"><title>3&#45;&gt;5</title>
<path fill="none" stroke="black" d="M1172.52,-143.697C1172.52,-135.983 1172.52,-126.712 1172.52,-118.112"/>
<polygon fill="black" stroke="black" points="1176.02,-118.104 1172.52,-108.104 1169.02,-118.104 1176.02,-118.104"/>
</g>
<!-- 6 -->
<g id="node3" class="node"><title>6</title>
<ellipse fill="none" stroke="black" cx="801.516" cy="-18" rx="381.532" ry="18"/>
<text text-anchor="middle" x="801.516" y="-14.3" font-family="Times New Roman,serif" font-size="14.00">merge_sort_buffered([(&#39;text_split_4_L_0.txt&#39;, 2)], &#39;text.txt&#39;, 4, _side=L) ↦ [(&#39;text_split_4_L_0.txt&#39;, 2)]</text>
</g>
<!-- 5&#45;&gt;6 -->
<g id="edge2" class="edge"><title>5&#45;&gt;6</title>
<path fill="none" stroke="black" d="M1084.59,-72.411C1028.79,-61.8818 956.514,-48.2449 898.962,-37.386"/>
<polygon fill="black" stroke="black" points="899.603,-33.9453 889.128,-35.5305 898.305,-40.824 899.603,-33.9453"/>
</g>
<!-- 7 -->
<g id="node5" class="node"><title>7</title>
<ellipse fill="none" stroke="black" cx="1585.52" cy="-18" rx="384.232" ry="18"/>
<text text-anchor="middle" x="1585.52" y="-14.3" font-family="Times New Roman,serif" font-size="14.00">merge_sort_buffered([(&#39;text_split_4_R_0.txt&#39;, 3)], &#39;text.txt&#39;, 4, _side=R) ↦ [(&#39;text_split_4_R_0.txt&#39;, 3)]</text>
</g>
<!-- 5&#45;&gt;7 -->
<g id="edge3" class="edge"><title>5&#45;&gt;7</title>
<path fill="none" stroke="black" d="M1269.61,-72.5439C1332.19,-61.9366 1413.62,-48.1343 1478.14,-37.1999"/>
<polygon fill="black" stroke="black" points="1479.07,-40.5925 1488.34,-35.4705 1477.9,-33.6909 1479.07,-40.5925"/>
</g>
<!-- 2 -->
<g id="node6" class="node"><title>2</title>
<ellipse fill="none" stroke="black" cx="2356.52" cy="-234" rx="397.23" ry="18"/>
<text text-anchor="middle" x="2356.52" y="-230.3" font-family="Times New Roman,serif" font-size="14.00">merge_sort_buffered([(&#39;text_split_1_L_0.txt&#39;, 16)], &#39;text.txt&#39;, 1, _side=L) ↦ [(&#39;text_merge_1_L_0.txt&#39;, 16)]</text>
</g>
<!-- 2&#45;&gt;3 -->
<g id="edge5" class="edge"><title>2&#45;&gt;3</title>
<path fill="none" stroke="black" d="M2125.42,-219.337C1919.66,-207.172 1619.84,-189.447 1411.67,-177.139"/>
<polygon fill="black" stroke="black" points="1411.71,-173.635 1401.52,-176.539 1411.3,-180.623 1411.71,-173.635"/>
</g>
<!-- 8 -->
<g id="node8" class="node"><title>8</title>
<ellipse fill="none" stroke="black" cx="2356.52" cy="-162" rx="391.031" ry="18"/>
<text text-anchor="middle" x="2356.52" y="-158.3" font-family="Times New Roman,serif" font-size="14.00">merge_sort_buffered([(&#39;text_split_2_R_0.txt&#39;, 7)], &#39;text.txt&#39;, 2, _side=R) ↦ [(&#39;text_merge_2_R_0.txt&#39;, 7)]</text>
</g>
<!-- 2&#45;&gt;8 -->
<g id="edge10" class="edge"><title>2&#45;&gt;8</title>
<path fill="none" stroke="black" d="M2356.52,-215.697C2356.52,-207.983 2356.52,-198.712 2356.52,-190.112"/>
<polygon fill="black" stroke="black" points="2360.02,-190.104 2356.52,-180.104 2353.02,-190.104 2360.02,-190.104"/>
</g>
<!-- 9 -->
<g id="node7" class="node"><title>9</title>
<ellipse fill="none" stroke="black" cx="1963.52" cy="-90" rx="381.532" ry="18"/>
<text text-anchor="middle" x="1963.52" y="-86.3" font-family="Times New Roman,serif" font-size="14.00">merge_sort_buffered([(&#39;text_split_3_L_0.txt&#39;, 2)], &#39;text.txt&#39;, 3, _side=L) ↦ [(&#39;text_split_3_L_0.txt&#39;, 2)]</text>
</g>
<!-- 8&#45;&gt;9 -->
<g id="edge6" class="edge"><title>8&#45;&gt;9</title>
<path fill="none" stroke="black" d="M2263.88,-144.5C2204.55,-133.932 2127.49,-120.207 2066.28,-109.304"/>
<polygon fill="black" stroke="black" points="2066.67,-105.819 2056.21,-107.511 2065.44,-112.71 2066.67,-105.819"/>
</g>
<!-- 10 -->
<g id="node10" class="node"><title>10</title>
<ellipse fill="none" stroke="black" cx="2754.52" cy="-90" rx="391.031" ry="18"/>
<text text-anchor="middle" x="2754.52" y="-86.3" font-family="Times New Roman,serif" font-size="14.00">merge_sort_buffered([(&#39;text_split_3_R_0.txt&#39;, 4)], &#39;text.txt&#39;, 3, _side=R) ↦ [(&#39;text_merge_3_R_0.txt&#39;, 4)]</text>
</g>
<!-- 8&#45;&gt;10 -->
<g id="edge9" class="edge"><title>8&#45;&gt;10</title>
<path fill="none" stroke="black" d="M2450.33,-144.5C2510.42,-133.932 2588.45,-120.207 2650.44,-109.304"/>
<polygon fill="black" stroke="black" points="2651.4,-112.69 2660.64,-107.511 2650.19,-105.796 2651.4,-112.69"/>
</g>
<!-- 11 -->
<g id="node9" class="node"><title>11</title>
<ellipse fill="none" stroke="black" cx="2561.52" cy="-18" rx="381.532" ry="18"/>
<text text-anchor="middle" x="2561.52" y="-14.3" font-family="Times New Roman,serif" font-size="14.00">merge_sort_buffered([(&#39;text_split_4_L_0.txt&#39;, 1)], &#39;text.txt&#39;, 4, _side=L) ↦ [(&#39;text_split_4_L_0.txt&#39;, 1)]</text>
</g>
<!-- 10&#45;&gt;11 -->
<g id="edge7" class="edge"><title>10&#45;&gt;11</title>
<path fill="none" stroke="black" d="M2707.8,-72.055C2680.63,-62.2033 2646.23,-49.7236 2617.61,-39.3432"/>
<polygon fill="black" stroke="black" points="2618.73,-36.0296 2608.14,-35.9102 2616.35,-42.6101 2618.73,-36.0296"/>
</g>
<!-- 12 -->
<g id="node11" class="node"><title>12</title>
<ellipse fill="none" stroke="black" cx="3345.52" cy="-18" rx="384.232" ry="18"/>
<text text-anchor="middle" x="3345.52" y="-14.3" font-family="Times New Roman,serif" font-size="14.00">merge_sort_buffered([(&#39;text_split_4_R_0.txt&#39;, 2)], &#39;text.txt&#39;, 4, _side=R) ↦ [(&#39;text_split_4_R_0.txt&#39;, 2)]</text>
</g>
<!-- 10&#45;&gt;12 -->
<g id="edge8" class="edge"><title>10&#45;&gt;12</title>
<path fill="none" stroke="black" d="M2888.99,-73.0721C2982.18,-62.0351 3106.12,-47.3555 3201.34,-36.0767"/>
<polygon fill="black" stroke="black" points="3201.82,-39.5444 3211.34,-34.8924 3201,-32.593 3201.82,-39.5444"/>
</g>
<!-- 1 -->
<g id="node12" class="node"><title>1</title>
<ellipse fill="none" stroke="black" stroke-width="3" cx="2956.52" cy="-306" rx="317.644" ry="18"/>
<text text-anchor="middle" x="2956.52" y="-302.3" font-family="Times New Roman,serif" font-size="14.00">merge_sort_buffered([(&#39;text.txt&#39;, 32)], &#39;text.txt&#39;) ↦ [(&#39;text_merge_0_None_0.txt&#39;, 32)]</text>
</g>
<!-- 1&#45;&gt;2 -->
<g id="edge11" class="edge"><title>1&#45;&gt;2</title>
<path fill="none" stroke="black" d="M2824.47,-289.595C2729.4,-278.503 2601.13,-263.538 2502.93,-252.081"/>
<polygon fill="black" stroke="black" points="2503.26,-248.596 2492.92,-250.914 2502.45,-255.549 2503.26,-248.596"/>
</g>
<!-- 13 -->
<g id="node18" class="node"><title>13</title>
<ellipse fill="none" stroke="black" cx="3557.52" cy="-234" rx="399.929" ry="18"/>
<text text-anchor="middle" x="3557.52" y="-230.3" font-family="Times New Roman,serif" font-size="14.00">merge_sort_buffered([(&#39;text_split_1_R_0.txt&#39;, 15)], &#39;text.txt&#39;, 1, _side=R) ↦ [(&#39;text_merge_1_R_0.txt&#39;, 15)]</text>
</g>
<!-- 1&#45;&gt;13 -->
<g id="edge22" class="edge"><title>1&#45;&gt;13</title>
<path fill="none" stroke="black" d="M3088.78,-289.595C3183.92,-278.513 3312.27,-263.565 3410.6,-252.111"/>
<polygon fill="black" stroke="black" points="3411.1,-255.578 3420.62,-250.944 3410.29,-248.625 3411.1,-255.578"/>
</g>
<!-- 15 -->
<g id="node13" class="node"><title>15</title>
<ellipse fill="none" stroke="black" cx="3545.52" cy="-90" rx="381.532" ry="18"/>
<text text-anchor="middle" x="3545.52" y="-86.3" font-family="Times New Roman,serif" font-size="14.00">merge_sort_buffered([(&#39;text_split_3_L_0.txt&#39;, 1)], &#39;text.txt&#39;, 3, _side=L) ↦ [(&#39;text_split_3_L_0.txt&#39;, 1)]</text>
</g>
<!-- 14 -->
<g id="node14" class="node"><title>14</title>
<ellipse fill="none" stroke="black" cx="3557.52" cy="-162" rx="388.031" ry="18"/>
<text text-anchor="middle" x="3557.52" y="-158.3" font-family="Times New Roman,serif" font-size="14.00">merge_sort_buffered([(&#39;text_split_2_L_0.txt&#39;, 7)], &#39;text.txt&#39;, 2, _side=L) ↦ [(&#39;text_merge_2_L_0.txt&#39;, 7)]</text>
</g>
<!-- 14&#45;&gt;15 -->
<g id="edge12" class="edge"><title>14&#45;&gt;15</title>
<path fill="none" stroke="black" d="M3554.55,-143.697C3553.23,-135.983 3551.64,-126.712 3550.16,-118.112"/>
<polygon fill="black" stroke="black" points="3553.59,-117.369 3548.45,-108.104 3546.69,-118.552 3553.59,-117.369"/>
</g>
<!-- 16 -->
<g id="node16" class="node"><title>16</title>
<ellipse fill="none" stroke="black" cx="4336.52" cy="-90" rx="391.031" ry="18"/>
<text text-anchor="middle" x="4336.52" y="-86.3" font-family="Times New Roman,serif" font-size="14.00">merge_sort_buffered([(&#39;text_split_3_R_0.txt&#39;, 5)], &#39;text.txt&#39;, 3, _side=R) ↦ [(&#39;text_merge_3_R_0.txt&#39;, 5)]</text>
</g>
<!-- 14&#45;&gt;16 -->
<g id="edge15" class="edge"><title>14&#45;&gt;16</title>
<path fill="none" stroke="black" d="M3727.03,-145.768C3854.08,-134.351 4027.59,-118.76 4156.99,-107.132"/>
<polygon fill="black" stroke="black" points="4157.37,-110.612 4167.01,-106.231 4156.74,-103.64 4157.37,-110.612"/>
</g>
<!-- 17 -->
<g id="node15" class="node"><title>17</title>
<ellipse fill="none" stroke="black" cx="4232.52" cy="-18" rx="381.532" ry="18"/>
<text text-anchor="middle" x="4232.52" y="-14.3" font-family="Times New Roman,serif" font-size="14.00">merge_sort_buffered([(&#39;text_split_4_L_0.txt&#39;, 2)], &#39;text.txt&#39;, 4, _side=L) ↦ [(&#39;text_split_4_L_0.txt&#39;, 2)]</text>
</g>
<!-- 16&#45;&gt;17 -->
<g id="edge13" class="edge"><title>16&#45;&gt;17</title>
<path fill="none" stroke="black" d="M4311.07,-71.8761C4297.73,-62.8931 4281.19,-51.7625 4266.74,-42.0341"/>
<polygon fill="black" stroke="black" points="4268.31,-38.87 4258.06,-36.1898 4264.4,-44.6771 4268.31,-38.87"/>
</g>
<!-- 18 -->
<g id="node17" class="node"><title>18</title>
<ellipse fill="none" stroke="black" cx="5016.52" cy="-18" rx="384.232" ry="18"/>
<text text-anchor="middle" x="5016.52" y="-14.3" font-family="Times New Roman,serif" font-size="14.00">merge_sort_buffered([(&#39;text_split_4_R_0.txt&#39;, 2)], &#39;text.txt&#39;, 4, _side=R) ↦ [(&#39;text_split_4_R_0.txt&#39;, 2)]</text>
</g>
<!-- 16&#45;&gt;18 -->
<g id="edge14" class="edge"><title>16&#45;&gt;18</title>
<path fill="none" stroke="black" d="M4488.28,-73.3778C4597.32,-62.1521 4744.1,-47.0431 4855.26,-35.6003"/>
<polygon fill="black" stroke="black" points="4855.63,-39.0802 4865.22,-34.5745 4854.92,-32.117 4855.63,-39.0802"/>
</g>
<!-- 13&#45;&gt;14 -->
<g id="edge16" class="edge"><title>13&#45;&gt;14</title>
<path fill="none" stroke="black" d="M3557.52,-215.697C3557.52,-207.983 3557.52,-198.712 3557.52,-190.112"/>
<polygon fill="black" stroke="black" points="3561.02,-190.104 3557.52,-180.104 3554.02,-190.104 3561.02,-190.104"/>
</g>
<!-- 19 -->
<g id="node20" class="node"><title>19</title>
<ellipse fill="none" stroke="black" cx="5127.52" cy="-162" rx="391.031" ry="18"/>
<text text-anchor="middle" x="5127.52" y="-158.3" font-family="Times New Roman,serif" font-size="14.00">merge_sort_buffered([(&#39;text_split_2_R_0.txt&#39;, 7)], &#39;text.txt&#39;, 2, _side=R) ↦ [(&#39;text_merge_2_R_0.txt&#39;, 7)]</text>
</g>
<!-- 13&#45;&gt;19 -->
<g id="edge21" class="edge"><title>13&#45;&gt;19</title>
<path fill="none" stroke="black" d="M3830.54,-220.827C4115.36,-208.128 4559.67,-188.318 4847.18,-175.499"/>
<polygon fill="black" stroke="black" points="4847.51,-178.988 4857.34,-175.046 4847.2,-171.995 4847.51,-178.988"/>
</g>
<!-- 20 -->
<g id="node19" class="node"><title>20</title>
<ellipse fill="none" stroke="black" cx="5127.52" cy="-90" rx="381.532" ry="18"/>
<text text-anchor="middle" x="5127.52" y="-86.3" font-family="Times New Roman,serif" font-size="14.00">merge_sort_buffered([(&#39;text_split_3_L_0.txt&#39;, 1)], &#39;text.txt&#39;, 3, _side=L) ↦ [(&#39;text_split_3_L_0.txt&#39;, 1)]</text>
</g>
<!-- 19&#45;&gt;20 -->
<g id="edge17" class="edge"><title>19&#45;&gt;20</title>
<path fill="none" stroke="black" d="M5127.52,-143.697C5127.52,-135.983 5127.52,-126.712 5127.52,-118.112"/>
<polygon fill="black" stroke="black" points="5131.02,-118.104 5127.52,-108.104 5124.02,-118.104 5131.02,-118.104"/>
</g>
<!-- 21 -->
<g id="node22" class="node"><title>21</title>
<ellipse fill="none" stroke="black" cx="5918.52" cy="-90" rx="391.031" ry="18"/>
<text text-anchor="middle" x="5918.52" y="-86.3" font-family="Times New Roman,serif" font-size="14.00">merge_sort_buffered([(&#39;text_split_3_R_0.txt&#39;, 5)], &#39;text.txt&#39;, 3, _side=R) ↦ [(&#39;text_merge_3_R_0.txt&#39;, 5)]</text>
</g>
<!-- 19&#45;&gt;21 -->
<g id="edge20" class="edge"><title>19&#45;&gt;21</title>
<path fill="none" stroke="black" d="M5299.15,-145.811C5428.35,-134.378 5605.07,-118.739 5736.68,-107.091"/>
<polygon fill="black" stroke="black" points="5737.22,-110.557 5746.88,-106.189 5736.61,-103.585 5737.22,-110.557"/>
</g>
<!-- 22 -->
<g id="node21" class="node"><title>22</title>
<ellipse fill="none" stroke="black" cx="5859.52" cy="-18" rx="381.532" ry="18"/>
<text text-anchor="middle" x="5859.52" y="-14.3" font-family="Times New Roman,serif" font-size="14.00">merge_sort_buffered([(&#39;text_split_4_L_0.txt&#39;, 2)], &#39;text.txt&#39;, 4, _side=L) ↦ [(&#39;text_split_4_L_0.txt&#39;, 2)]</text>
</g>
<!-- 21&#45;&gt;22 -->
<g id="edge18" class="edge"><title>21&#45;&gt;22</title>
<path fill="none" stroke="black" d="M5903.93,-71.6966C5896.86,-63.3046 5888.23,-53.0705 5880.47,-43.8613"/>
<polygon fill="black" stroke="black" points="5883.05,-41.495 5873.93,-36.1043 5877.7,-46.0063 5883.05,-41.495"/>
</g>
<!-- 23 -->
<g id="node23" class="node"><title>23</title>
<ellipse fill="none" stroke="black" cx="6643.52" cy="-18" rx="384.232" ry="18"/>
<text text-anchor="middle" x="6643.52" y="-14.3" font-family="Times New Roman,serif" font-size="14.00">merge_sort_buffered([(&#39;text_split_4_R_0.txt&#39;, 2)], &#39;text.txt&#39;, 4, _side=R) ↦ [(&#39;text_split_4_R_0.txt&#39;, 2)]</text>
</g>
<!-- 21&#45;&gt;23 -->
<g id="edge19" class="edge"><title>21&#45;&gt;23</title>
<path fill="none" stroke="black" d="M6078.52,-73.5515C6195.74,-62.2339 6354.55,-46.9005 6473.95,-35.3721"/>
<polygon fill="black" stroke="black" points="6474.31,-38.8539 6483.92,-34.409 6473.63,-31.8863 6474.31,-38.8539"/>
</g>
</g>
</svg>
